<?xml version="1.0" standalone="no"?>
<!DOCTYPE svg PUBLIC "-//W3C//DTD SVG 20010904//EN"
 "http://www.w3.org/TR/2001/REC-SVG-20010904/DTD/svg10.dtd">
<svg version="1.0" xmlns="http://www.w3.org/2000/svg"
 width="500.000000pt" height="500.000000pt" viewBox="0 0 500.000000 500.000000"
 preserveAspectRatio="xMidYMid meet">

<g transform="translate(0.000000,500.000000) scale(0.100000,-0.100000)"
fill="#000000" stroke="none">
<path d="M1492 3070 l3 -835 99 -3 100 -3 53 53 53 52 0 631 0 630 -155 155
-155 155 2 -835z"/>
<path d="M3352 3747 l-152 -152 0 -683 0 -682 155 0 155 0 0 835 c0 459 -1
835 -3 835 -1 0 -71 -69 -155 -153z"/>
<path d="M2287 3873 c3 -7 13 -15 24 -18 10 -4 19 -11 19 -16 0 -5 5 -9 11 -9
5 0 7 5 3 11 -4 7 -1 10 6 7 28 -9 21 -26 -11 -24 -24 2 -28 0 -18 -9 8 -6 19
-17 25 -24 9 -10 13 -10 19 0 5 8 4 10 -3 5 -7 -4 -12 -2 -12 3 0 6 5 12 10
12 6 1 15 2 22 3 6 0 13 7 16 15 3 8 0 11 -5 8 -5 -3 -15 3 -23 13 -8 10 -18
16 -24 13 -5 -4 -7 0 -3 9 4 12 -2 15 -28 15 -22 -1 -31 -5 -28 -14z m44 -10
c13 -15 12 -15 -8 -4 -24 12 -29 21 -14 21 5 0 15 -7 22 -17z"/>
<path d="M2375 3881 c-3 -5 0 -13 6 -17 8 -4 9 -3 5 4 -4 7 -3 12 1 12 5 0 14
-9 21 -20 16 -26 32 -26 32 1 0 17 -3 19 -14 10 -10 -9 -15 -8 -20 4 -6 17
-22 20 -31 6z"/>
<path d="M2459 3882 c9 -3 9 -7 1 -17 -12 -15 5 -16 27 -2 6 4 14 3 18 -3 3
-5 0 -10 -7 -10 -7 -1 -1 -8 15 -16 15 -8 27 -17 27 -20 0 -3 -4 -2 -10 1 -5
3 -10 0 -10 -9 0 -8 -4 -16 -8 -18 -13 -5 -24 -58 -12 -58 5 0 10 11 10 25 0
17 6 25 17 25 9 0 14 3 10 6 -3 4 1 13 9 22 14 14 13 16 -13 28 -15 7 -24 13
-19 13 5 1 3 8 -4 16 -19 23 -2 18 36 -11 34 -26 47 -25 20 1 -7 8 -17 11 -21
7 -5 -4 -6 0 -3 9 5 13 -3 16 -45 15 -28 0 -45 -2 -38 -4z"/>
<path d="M2575 3881 c-3 -5 0 -13 6 -17 8 -4 9 -3 5 4 -11 19 5 14 19 -5 7 -9
10 -23 7 -31 -4 -11 -6 -11 -13 0 -7 10 -9 9 -9 -4 0 -10 -5 -18 -11 -18 -6 0
-9 -7 -6 -14 4 -10 1 -13 -8 -10 -10 4 -12 -4 -9 -37 2 -23 7 -45 10 -48 4 -3
4 4 1 17 -5 21 3 27 28 22 6 -1 7 2 3 6 -9 8 10 34 24 34 5 0 6 -6 2 -12 -5
-9 -2 -9 9 1 9 7 17 18 17 23 0 12 -43 -1 -52 -16 -6 -8 -8 -7 -8 2 0 24 2 27
16 24 8 -2 14 5 14 18 0 11 5 20 10 20 6 0 10 10 10 21 0 17 -3 19 -14 10 -10
-9 -15 -8 -20 4 -6 17 -22 20 -31 6z m10 -119 c-3 -3 -11 0 -18 7 -9 10 -8 11
6 5 10 -3 15 -9 12 -12z"/>
<path d="M2668 3872 c9 -7 12 -11 5 -8 -6 4 -14 3 -17 -2 -2 -4 4 -9 15 -9 10
-1 19 3 19 8 0 6 5 7 10 4 16 -10 -7 -34 -28 -30 -9 1 -11 0 -4 -2 7 -3 9 -10
6 -16 -4 -7 5 -1 19 12 22 20 25 27 14 39 -10 13 -9 15 4 10 9 -3 21 -3 28 1
6 4 -11 8 -38 7 -44 0 -48 -1 -33 -14z"/>
<path d="M2409 3823 c-1 -10 -1 -24 0 -31 1 -7 -2 -12 -6 -11 -19 3 -33 -2
-33 -12 0 -5 5 -7 10 -4 6 3 10 -1 10 -9 0 -21 17 -29 24 -10 3 8 2 12 -4 9
-6 -3 -10 -1 -10 4 0 6 5 11 11 11 5 0 9 8 8 18 -3 29 1 38 10 23 6 -9 11 -10
15 -3 4 6 -3 16 -14 22 -16 9 -20 8 -21 -7z"/>
<path d="M2454 3816 c0 -13 5 -22 9 -19 5 3 6 12 3 22 -5 14 -4 14 7 1 11 -14
37 -25 37 -16 0 3 -7 12 -16 20 -23 24 -42 20 -40 -8z"/>
<path d="M2630 3820 c0 -5 5 -10 11 -10 5 0 7 5 4 10 -3 6 -8 10 -11 10 -2 0
-4 -4 -4 -10z"/>
<path d="M2475 3780 c3 -5 8 -10 11 -10 2 0 4 5 4 10 0 6 -5 10 -11 10 -5 0
-7 -4 -4 -10z"/>
<path d="M2455 3758 c2 -9 0 -19 -4 -21 -3 -2 1 -2 9 0 12 3 12 2 3 -8 -10
-10 -9 -15 5 -25 10 -8 12 -13 5 -14 -7 0 -22 9 -33 20 -22 22 -27 14 -7 -10
17 -21 53 -24 61 -5 3 9 11 13 17 9 8 -4 9 -3 5 5 -6 9 -11 9 -22 0 -15 -12
-18 -4 -14 35 1 10 -3 15 -8 12 -6 -3 -12 -1 -15 6 -2 7 -3 5 -2 -4z"/>
<path d="M2532 3752 c-9 -6 -10 -15 -3 -33 5 -13 10 -22 11 -19 1 4 6 60 5 60
0 0 -6 -4 -13 -8z"/>
<path d="M2503 3674 c-3 -8 -12 -13 -19 -10 -8 3 -11 0 -7 -10 3 -9 9 -11 17
-5 6 5 16 9 21 10 14 0 19 31 5 31 -6 0 -13 -7 -17 -16z"/>
<path d="M2928 3254 l-148 -146 0 -434 0 -434 150 0 150 0 0 580 c0 319 -1
580 -2 580 -2 0 -69 -66 -150 -146z"/>
<path d="M2036 3252 c-3 -5 1 -9 9 -9 8 0 12 4 9 9 -3 4 -7 8 -9 8 -2 0 -6 -4
-9 -8z"/>
<path d="M2120 3110 c0 -5 5 -10 11 -10 5 0 7 5 4 10 -3 6 -8 10 -11 10 -2 0
-4 -4 -4 -10z"/>
<path d="M1980 2976 c0 -2 7 -9 15 -16 13 -11 14 -10 9 4 -5 14 -24 23 -24 12z"/>
<path d="M2055 2940 c-10 -11 -13 -20 -8 -20 6 0 14 7 17 16 3 8 10 12 16 9 5
-3 10 -1 10 4 0 17 -15 13 -35 -9z"/>
<path d="M2140 2946 c0 -2 8 -10 18 -17 15 -13 16 -12 3 4 -13 16 -21 21 -21
13z"/>
<path d="M1985 2910 c-3 -5 -1 -10 4 -10 6 0 11 5 11 10 0 6 -2 10 -4 10 -3 0
-8 -4 -11 -10z"/>
<path d="M1957 2877 c-3 -8 1 -14 8 -14 7 0 11 6 8 14 -3 7 -6 13 -8 13 -2 0
-5 -6 -8 -13z"/>
<path d="M2140 2831 c0 -6 4 -13 10 -16 6 -3 7 1 4 9 -7 18 -14 21 -14 7z"/>
<path d="M2113 2335 c0 -8 4 -12 9 -9 5 3 6 10 3 15 -9 13 -12 11 -12 -6z"/>
<path d="M2617 1834 c-4 -4 -7 -34 -7 -68 0 -47 -3 -57 -12 -48 -19 19 -65 14
-88 -10 -30 -32 -28 -117 3 -146 26 -24 48 -27 78 -11 15 7 24 7 33 0 8 -6 21
-8 30 -5 14 6 16 24 14 148 -3 133 -4 141 -23 144 -12 2 -24 0 -28 -4z m-9
-190 c3 -34 -18 -60 -43 -50 -9 3 -15 18 -15 39 0 40 7 49 35 45 14 -2 21 -12
23 -34z"/>
<path d="M3407 1833 c-4 -3 -7 -33 -7 -65 0 -53 -10 -73 -25 -48 -10 17 -54
11 -75 -10 -30 -30 -28 -119 3 -148 27 -26 59 -28 77 -7 11 13 14 13 26 -2 10
-14 17 -16 31 -7 16 10 18 28 21 144 2 100 -1 135 -10 142 -16 10 -32 10 -41
1z m-19 -165 c30 -30 -2 -93 -36 -71 -21 13 -27 50 -12 69 15 17 32 18 48 2z"/>
<path d="M1552 1688 l3 -143 67 -3 c61 -3 71 0 93 22 30 30 34 89 8 118 -13
14 -14 21 -5 30 7 7 12 28 12 48 0 56 -22 70 -109 70 l-72 0 3 -142z m116 65
c-2 -22 -9 -29 -30 -31 -25 -3 -28 0 -28 27 0 28 3 31 31 31 27 0 30 -3 27
-27z m-4 -79 c19 -7 21 -55 4 -72 -7 -7 -22 -12 -35 -12 -21 0 -23 5 -23 45 0
47 12 55 54 39z"/>
<path d="M2931 1812 c-5 -10 -25 -71 -44 -135 -34 -112 -34 -118 -17 -127 29
-16 36 -12 46 23 9 29 14 32 51 35 39 3 42 1 53 -32 12 -37 24 -43 49 -27 13
8 9 30 -25 143 -39 132 -39 133 -71 136 -23 2 -34 -2 -42 -16z m57 -119 l10
-43 -29 0 c-33 0 -32 -3 -18 56 13 51 22 48 37 -13z"/>
<path d="M3145 1810 c-8 -13 12 -40 29 -40 18 0 35 21 29 36 -6 16 -49 19 -58
4z"/>
<path d="M1822 1638 c3 -85 5 -93 23 -93 17 0 21 9 26 53 8 59 20 79 52 84 14
2 22 10 22 23 0 25 -37 32 -58 11 -13 -14 -16 -14 -21 -1 -3 8 -15 15 -26 15
-20 0 -21 -5 -18 -92z"/>
<path d="M2021 1716 c-6 -7 -9 -21 -5 -30 7 -19 6 -19 38 -5 20 9 29 9 41 -1
22 -18 18 -30 -9 -30 -65 0 -101 -43 -76 -89 13 -25 61 -28 81 -5 12 14 14 14
26 -2 11 -15 17 -16 31 -8 13 9 17 26 17 79 0 58 -3 69 -24 86 -28 23 -103 26
-120 5z m89 -105 c0 -5 -7 -14 -15 -21 -18 -15 -42 1 -31 19 8 13 46 15 46 2z"/>
<path d="M2247 1723 c-4 -3 -7 -41 -7 -83 0 -81 13 -109 45 -96 11 4 15 20 15
58 0 61 10 81 36 76 16 -3 20 -14 22 -60 3 -59 20 -85 48 -74 25 10 16 150
-11 170 -24 18 -66 21 -82 5 -8 -8 -13 -8 -17 0 -8 12 -39 15 -49 4z"/>
<path d="M3147 1724 c-4 -4 -7 -42 -7 -84 0 -81 13 -109 45 -96 13 5 15 22 13
93 -3 80 -5 88 -23 91 -12 2 -24 0 -28 -4z"/>
<path d="M1910 1225 c0 -57 4 -95 10 -95 6 0 10 38 10 95 0 57 -4 95 -10 95
-6 0 -10 -38 -10 -95z"/>
<path d="M2060 1275 c0 -43 -1 -45 -21 -33 -18 11 -23 10 -40 -11 -39 -48 -15
-101 46 -99 l35 1 0 94 c0 55 -4 93 -10 93 -5 0 -10 -20 -10 -45z m-2 -81 c4
-38 -20 -63 -43 -44 -15 13 -21 61 -8 74 4 4 16 6 28 4 14 -2 21 -12 23 -34z"/>
<path d="M3460 1275 c0 -43 -1 -45 -21 -33 -18 11 -23 10 -40 -11 -39 -48 -15
-101 46 -99 l35 1 0 94 c0 55 -4 93 -10 93 -5 0 -10 -20 -10 -45z m-2 -81 c4
-38 -20 -63 -43 -44 -15 13 -21 61 -8 74 4 4 16 6 28 4 14 -2 21 -12 23 -34z"/>
<path d="M1520 1221 l0 -91 39 0 c23 0 46 7 55 16 17 16 21 55 9 68 -5 4 -8
26 -8 49 l0 42 -47 3 -48 3 0 -90z m87 53 c7 -19 -21 -44 -49 -44 -13 0 -18 8
-18 30 0 27 3 30 30 30 19 0 33 -6 37 -16z m-2 -89 c0 -27 -4 -30 -32 -33 -32
-3 -33 -2 -33 33 0 35 1 36 33 33 28 -3 32 -6 32 -33z"/>
<path d="M2200 1306 c0 -2 12 -25 27 -52 15 -27 30 -67 34 -89 l6 -40 2 38 c0
21 13 58 27 83 14 24 24 49 21 56 -2 7 -15 -9 -29 -37 l-26 -50 -23 48 c-13
26 -27 47 -31 47 -4 0 -8 -2 -8 -4z"/>
<path d="M2830 1220 l0 -90 38 0 c50 0 63 11 62 51 0 19 -1 49 0 68 0 45 -15
61 -61 61 l-39 0 0 -90z m84 55 c7 -18 -19 -45 -45 -45 -14 0 -19 7 -19 30 0
26 3 30 29 30 16 0 31 -6 35 -15z m1 -90 c0 -27 -4 -30 -32 -33 -32 -3 -33 -2
-33 33 0 35 1 36 33 33 28 -3 32 -6 32 -33z"/>
<path d="M1830 1290 c0 -5 5 -10 10 -10 6 0 10 5 10 10 0 6 -4 10 -10 10 -5 0
-10 -4 -10 -10z"/>
<path d="M2362 1234 c-41 -28 -20 -104 28 -104 47 0 62 88 20 110 -24 13 -22
13 -48 -6z m56 -40 c4 -38 -20 -63 -43 -44 -15 13 -21 61 -8 74 4 4 16 6 28 4
14 -2 21 -12 23 -34z"/>
<path d="M2675 1240 c-3 -5 -12 -7 -20 -3 -12 4 -15 -6 -15 -51 0 -68 18 -75
22 -8 3 40 6 47 26 50 12 2 20 8 17 13 -8 12 -22 12 -30 -1z"/>
<path d="M3025 1240 c-3 -5 -12 -7 -20 -3 -12 4 -15 -6 -15 -51 0 -68 18 -75
22 -8 3 40 6 47 26 50 12 2 20 8 17 13 -8 12 -22 12 -30 -1z"/>
<path d="M3111 1241 c-11 -7 -7 -10 15 -13 37 -4 48 -38 12 -38 -33 0 -51 -14
-46 -36 3 -15 12 -19 46 -19 l42 0 0 42 c0 58 -32 87 -69 64z m49 -75 c0 -16
-27 -29 -41 -20 -19 11 -9 34 16 34 15 0 25 -6 25 -14z"/>
<path d="M3263 1243 c-21 -4 -23 -10 -23 -61 0 -63 17 -61 22 3 2 32 7 40 23
40 16 0 21 -8 23 -40 5 -62 22 -68 22 -7 0 40 -4 53 -19 62 -11 5 -21 9 -23 9
-2 -1 -13 -4 -25 -6z"/>
<path d="M1680 1201 c0 -43 20 -71 50 -71 30 0 50 28 50 71 0 21 -4 39 -10 39
-5 0 -10 -17 -10 -39 0 -22 -6 -44 -15 -51 -23 -19 -45 5 -45 51 0 22 -4 39
-10 39 -5 0 -10 -18 -10 -39z"/>
<path d="M1830 1185 c0 -30 5 -55 10 -55 6 0 10 25 10 55 0 30 -4 55 -10 55
-5 0 -10 -25 -10 -55z"/>
<path d="M2490 1195 c0 -39 4 -47 26 -57 40 -19 59 -1 60 58 1 44 1 45 -3 7
-8 -79 -63 -81 -63 -2 0 22 -4 39 -10 39 -5 0 -10 -20 -10 -45z"/>
</g>
</svg>
