<?xml version="1.0" standalone="no"?>
<!DOCTYPE svg PUBLIC "-//W3C//DTD SVG 20010904//EN"
 "http://www.w3.org/TR/2001/REC-SVG-20010904/DTD/svg10.dtd">
<svg version="1.0" xmlns="http://www.w3.org/2000/svg"
 width="500.000000pt" height="500.000000pt" viewBox="0 0 500.000000 500.000000"
 preserveAspectRatio="xMidYMid meet">

<g transform="translate(0.000000,500.000000) scale(0.100000,-0.100000)"
fill="#000000" stroke="none">
<path d="M1492 3070 l3 -835 99 -3 100 -3 53 53 53 52 0 631 0 630 -155 155
-155 155 2 -835z"/>
<path d="M3352 3747 l-152 -152 0 -683 0 -682 155 0 155 0 0 835 c0 459 -1
835 -3 835 -1 0 -71 -69 -155 -153z"/>
<path d="M2287 3873 c3 -7 13 -15 24 -18 10 -4 19 -11 19 -16 0 -5 5 -9 11 -9
5 0 7 5 3 11 -4 7 -1 10 6 7 28 -9 21 -26 -11 -24 -24 2 -28 0 -18 -9 8 -6 19
-17 25 -24 9 -10 13 -10 19 0 5 8 4 10 -3 5 -7 -4 -12 -2 -12 3 0 6 5 12 10
12 6 1 15 2 22 3 6 0 13 7 16 15 3 8 0 11 -5 8 -5 -3 -15 3 -23 13 -8 10 -18
16 -24 13 -5 -4 -7 0 -3 9 4 12 -2 15 -28 15 -22 -1 -31 -5 -28 -14z m44 -10
c13 -15 12 -15 -8 -4 -24 12 -29 21 -14 21 5 0 15 -7 22 -17z"/>
<path d="M2375 3881 c-3 -5 0 -13 6 -17 8 -4 9 -3 5 4 -4 7 -3 12 1 12 5 0 14
-9 21 -20 16 -26 32 -26 32 1 0 17 -3 19 -14 10 -10 -9 -15 -8 -20 4 -6 17
-22 20 -31 6z"/>
<path d="M2459 3882 c9 -3 9 -7 1 -17 -12 -15 5 -16 27 -2 6 4 14 3 18 -3 3
-5 0 -10 -7 -10 -7 -1 -1 -8 15 -16 15 -8 27 -17 27 -20 0 -3 -4 -2 -10 1 -5
3 -10 0 -10 -9 0 -8 -4 -16 -8 -18 -13 -5 -24 -58 -12 -58 5 0 10 11 10 25 0
17 6 25 17 25 9 0 14 3 10 6 -3 4 1 13 9 22 14 14 13 16 -13 28 -15 7 -24 13
-19 13 5 1 3 8 -4 16 -19 23 -2 18 36 -11 34 -26 47 -25 20 1 -7 8 -17 11 -21
7 -5 -4 -6 0 -3 9 5 13 -3 16 -45 15 -28 0 -45 -2 -38 -4z"/>
<path d="M2575 3881 c-3 -5 0 -13 6 -17 8 -4 9 -3 5 4 -11 19 5 14 19 -5 7 -9
10 -23 7 -31 -4 -11 -6 -11 -13 0 -7 10 -9 9 -9 -4 0 -10 -5 -18 -11 -18 -6 0
-9 -7 -6 -14 4 -10 1 -13 -8 -10 -10 4 -12 -4 -9 -37 2 -23 7 -45 10 -48 4 -3
4 4 1 17 -5 21 3 27 28 22 6 -1 7 2 3 6 -9 8 10 34 24 34 5 0 6 -6 2 -12 -5
-9 -2 -9 9 1 9 7 17 18 17 23 0 12 -43 -1 -52 -16 -6 -8 -8 -7 -8 2 0 24 2 27
16 24 8 -2 14 5 14 18 0 11 5 20 10 20 6 0 10 10 10 21 0 17 -3 19 -14 10 -10
-9 -15 -8 -20 4 -6 17 -22 20 -31 6z m10 -119 c-3 -3 -11 0 -18 7 -9 10 -8 11
6 5 10 -3 15 -9 12 -12z"/>
<path d="M2668 3872 c9 -7 12 -11 5 -8 -6 4 -14 3 -17 -2 -2 -4 4 -9 15 -9 10
-1 19 3 19 8 0 6 5 7 10 4 16 -10 -7 -34 -28 -30 -9 1 -11 0 -4 -2 7 -3 9 -10
6 -16 -4 -7 5 -1 19 12 22 20 25 27 14 39 -10 13 -9 15 4 10 9 -3 21 -3 28 1
6 4 -11 8 -38 7 -44 0 -48 -1 -33 -14z"/>
<path d="M2409 3823 c-1 -10 -1 -24 0 -31 1 -7 -2 -12 -6 -11 -19 3 -33 -2
-33 -12 0 -5 5 -7 10 -4 6 3 10 -1 10 -9 0 -21 17 -29 24 -10 3 8 2 12 -4 9
-6 -3 -10 -1 -10 4 0 6 5 11 11 11 5 0 9 8 8 18 -3 29 1 38 10 23 6 -9 11 -10
15 -3 4 6 -3 16 -14 22 -16 9 -20 8 -21 -7z"/>
<path d="M2454 3816 c0 -13 5 -22 9 -19 5 3 6 12 3 22 -5 14 -4 14 7 1 11 -14
37 -25 37 -16 0 3 -7 12 -16 20 -23 24 -42 20 -40 -8z"/>
<path d="M2630 3820 c0 -5 5 -10 11 -10 5 0 7 5 4 10 -3 6 -8 10 -11 10 -2 0
-4 -4 -4 -10z"/>
<path d="M2475 3780 c3 -5 8 -10 11 -10 2 0 4 5 4 10 0 6 -5 10 -11 10 -5 0
-7 -4 -4 -10z"/>
<path d="M2455 3758 c2 -9 0 -19 -4 -21 -3 -2 1 -2 9 0 12 3 12 2 3 -8 -10
-10 -9 -15 5 -25 10 -8 12 -13 5 -14 -7 0 -22 9 -33 20 -22 22 -27 14 -7 -10
17 -21 53 -24 61 -5 3 9 11 13 17 9 8 -4 9 -3 5 5 -6 9 -11 9 -22 0 -15 -12
-18 -4 -14 35 1 10 -3 15 -8 12 -6 -3 -12 -1 -15 6 -2 7 -3 5 -2 -4z"/>
<path d="M2532 3752 c-9 -6 -10 -15 -3 -33 5 -13 10 -22 11 -19 1 4 6 60 5 60
0 0 -6 -4 -13 -8z"/>
<path d="M2503 3674 c-3 -8 -12 -13 -19 -10 -8 3 -11 0 -7 -10 3 -9 9 -11 17
-5 6 5 16 9 21 10 14 0 19 31 5 31 -6 0 -13 -7 -17 -16z"/>
<path d="M2928 3254 l-148 -146 0 -434 0 -434 150 0 150 0 0 580 c0 319 -1
580 -2 580 -2 0 -69 -66 -150 -146z"/>
<path d="M2036 3252 c-3 -5 1 -9 9 -9 8 0 12 4 9 9 -3 4 -7 8 -9 8 -2 0 -6 -4
-9 -8z"/>
<path d="M2120 3110 c0 -5 5 -10 11 -10 5 0 7 5 4 10 -3 6 -8 10 -11 10 -2 0
-4 -4 -4 -10z"/>
<path d="M1980 2976 c0 -2 7 -9 15 -16 13 -11 14 -10 9 4 -5 14 -24 23 -24 12z"/>
<path d="M2055 2940 c-10 -11 -13 -20 -8 -20 6 0 14 7 17 16 3 8 10 12 16 9 5
-3 10 -1 10 4 0 17 -15 13 -35 -9z"/>
<path d="M2140 2946 c0 -2 8 -10 18 -17 15 -13 16 -12 3 4 -13 16 -21 21 -21
13z"/>
<path d="M1985 2910 c-3 -5 -1 -10 4 -10 6 0 11 5 11 10 0 6 -2 10 -4 10 -3 0
-8 -4 -11 -10z"/>
<path d="M1957 2877 c-3 -8 1 -14 8 -14 7 0 11 6 8 14 -3 7 -6 13 -8 13 -2 0
-5 -6 -8 -13z"/>
<path d="M2140 2831 c0 -6 4 -13 10 -16 6 -3 7 1 4 9 -7 18 -14 21 -14 7z"/>
<path d="M2113 2335 c0 -8 4 -12 9 -9 5 3 6 10 3 15 -9 13 -12 11 -12 -6z"/>
</g>
</svg>
